HIERARCHY
ROOT Hips
{
 OFFSET 0.000000 0.000000 0.000000
 CHANNELS 6 Xposition Yposition Zposition Yrotation Xrotation Zrotation
 JOINT Chest
 {
  OFFSET 0.000000 10.388337 0.005184
  CHANNELS 3 Yrotation Xrotation Zrotation
  JOINT Chest2
  {
   OFFSET 0.000000 10.458247 -0.010579
   CHANNELS 3 Yrotation Xrotation Zrotation
   JOINT Chest3
   {
    OFFSET 0.000000 10.415828 0.000000
    CHANNELS 3 Yrotation Xrotation Zrotation
    JOINT Chest4
    {
     OFFSET 0.000000 10.405206 0.000000
     CHANNELS 3 Yrotation Xrotation Zrotation
     JOINT Neck
     {
      OFFSET 0.000000 15.720090 0.000000
      CHANNELS 3 Yrotation Xrotation Zrotation
      JOINT Head
      {
       OFFSET 0.000000 9.732643 -0.022378
       CHANNELS 3 Yrotation Xrotation Zrotation
       End Site
       {
        OFFSET 0.000000 18.603619 -0.011814
       }
      }
     }
     JOINT RightCollar
     {
      OFFSET -3.167735 10.388953 0.000000
      CHANNELS 3 Yrotation Xrotation Zrotation
      JOINT RightShoulder
      {
       OFFSET -14.584825 0.000000 0.000000
       CHANNELS 3 Yrotation Xrotation Zrotation
       JOINT RightElbow
       {
        OFFSET 0.000000 -31.921689 0.000000
        CHANNELS 3 Yrotation Xrotation Zrotation
        JOINT RightWrist
        {
         OFFSET 0.000000 -25.835217 0.000000
         CHANNELS 3 Yrotation Xrotation Zrotation
         End Site
         {
          OFFSET 0.000000 -19.128920 0.000000
         }
        }
       }
      }
     }
     JOINT LeftCollar
     {
      OFFSET 3.167735 10.388953 0.000000
      CHANNELS 3 Yrotation Xrotation Zrotation
      JOINT LeftShoulder
      {
       OFFSET 14.584825 0.000000 0.000000
       CHANNELS 3 Yrotation Xrotation Zrotation
       JOINT LeftElbow
       {
        OFFSET 0.000000 -31.921689 0.000000
        CHANNELS 3 Yrotation Xrotation Zrotation
        JOINT LeftWrist
        {
         OFFSET 0.000000 -25.835217 0.000000
         CHANNELS 3 Yrotation Xrotation Zrotation
         End Site
         {
          OFFSET 0.000000 -19.128920 0.000000
         }
        }
       }
      }
     }
    }
   }
  }
 }
 JOINT RightHip
 {
  OFFSET -8.403278 -0.025659 -0.002592
  CHANNELS 3 Yrotation Xrotation Zrotation
  JOINT RightKnee
  {
   OFFSET 0.000000 -44.040977 0.002477
   CHANNELS 3 Yrotation Xrotation Zrotation
   JOINT RightAnkle
   {
    OFFSET 0.000000 -42.951162 0.004189
    CHANNELS 3 Yrotation Xrotation Zrotation
    JOINT RightToe
    {
     OFFSET 0.000000 -5.494238 12.197485
     CHANNELS 3 Yrotation Xrotation Zrotation
     End Site
     {
      OFFSET 0.000000 -1.538716 6.371628
     }
    }
   }
  }
 }
 JOINT LeftHip
 {
  OFFSET 8.403278 -0.025659 -0.002592
  CHANNELS 3 Yrotation Xrotation Zrotation
  JOINT LeftKnee
  {
   OFFSET 0.000000 -44.040977 0.002477
   CHANNELS 3 Yrotation Xrotation Zrotation
   JOINT LeftAnkle
   {
    OFFSET 0.000000 -42.951162 0.004189
    CHANNELS 3 Yrotation Xrotation Zrotation
    JOINT LeftToe
    {
     OFFSET 0.000000 -5.494238 12.197485
     CHANNELS 3 Yrotation Xrotation Zrotation
     End Site
     {
      OFFSET 0.000000 -1.538716 6.371628
     }
    }
   }
  }
 }
}
MOTION
Frames: 13
Frame Time: 0.008333
20.779672 93.466330 5.687658 134.824683 -2.043461 -1.383313 1.378057 2.216171 -2.975559 0.045001 0.064515 -0.067493 0.080176 0.115057 -0.120293 1.706980 2.567197 -2.608762 -9.594007 9.856990 3.050931 -19.939399 -16.280796 10.192657 -0.084201 -1.544328 1.357871 6.595023 0.388558 -3.390892 15.048659 -4.968663 -0.341335 1.256331 -0.606251 1.427598 1.463489 -3.186418 6.663534 -6.909906 4.106150 5.245285 -7.460060 2.164919 -4.006121 2.716556 -0.967799 3.201245 -8.836326 3.770095 -4.582430 -15.753693 11.402983 -1.699936 0.671673 -5.113147 6.769706 -0.033194 -6.299807 0.652320 -5.377280 9.313951 -0.701374 17.003098 -6.417893 -3.491798 -16.336808 0.288749 2.311285 0.413435 0.461261 0.222097
20.716657 93.477153 5.657365 134.803993 -2.008046 -1.395931 1.469850 2.200843 -2.975337 0.047854 0.065085 -0.068383 0.085242 0.116049 -0.121849 1.798551 2.564062 -2.612762 -9.808542 9.785093 3.087215 -20.382010 -16.365051 10.369029 0.002253 -1.573080 1.403426 6.406112 0.084536 -3.239194 14.557275 -5.237824 -0.139255 1.168178 -0.668569 1.525300 1.491015 -3.185330 6.690737 -6.896114 4.288135 5.292059 -7.543538 2.315972 -3.822511 2.681598 -0.916468 3.180736 -8.976021 3.806831 -4.601376 -15.686120 11.197137 -1.674537 0.741021 -5.019403 6.739679 -0.028669 -5.960331 0.657102 -5.328839 9.220416 -0.713069 16.945983 -6.346649 -3.482360 -16.302439 0.314319 2.354143 0.422523 0.421859 0.219883
20.658507 93.487984 5.627506 134.768029 -1.980996 -1.413553 1.561047 2.185994 -2.974469 0.050738 0.065625 -0.069181 0.090360 0.116986 -0.123241 1.889891 2.560335 -2.613715 -10.021051 9.724363 3.119010 -20.816769 -16.429187 10.533656 0.080771 -1.615752 1.448333 6.236036 -0.214881 -3.055455 14.096850 -5.496898 0.029138 1.102576 -0.693617 1.606585 1.521966 -3.186832 6.731642 -6.852384 4.466743 5.311522 -7.656329 2.483220 -3.605315 2.649662 -0.860613 3.160300 -9.143143 3.857088 -4.614532 -15.628335 10.974477 -1.655440 0.836885 -4.916438 6.719827 -0.017803 -5.078801 0.584948 -5.294339 9.143032 -0.722663 16.881921 -6.286798 -3.467300 -16.250890 0.338811 2.391706 0.426269 0.385919 0.217457
20.605706 93.498443 5.598098 134.719397 -1.964184 -1.432736 1.648856 2.174452 -2.974547 0.053474 0.066068 -0.069841 0.095214 0.117755 -0.124388 1.975722 2.555266 -2.611932 -10.229947 9.675995 3.145504 -21.239872 -16.471612 10.683873 0.151770 -1.671827 1.492772 6.085907 -0.511279 -2.850963 13.679609 -5.744537 0.172971 1.063453 -0.690909 1.665485 1.562589 -3.191340 6.783930 -6.779996 4.645137 5.302495 -7.792946 2.659400 -3.357301 2.623986 -0.796788 3.138174 -9.325695 3.922984 -4.624716 -15.569205 10.738033 -1.639366 0.941928 -4.808808 6.704205 -0.006474 -4.070280 0.488651 -5.273222 9.086592 -0.734430 16.828173 -6.243789 -3.448839 -16.200437 0.366407 2.425188 0.420712 0.352484 0.212414
20.558368 93.508207 5.570616 134.662559 -1.952810 -1.454656 1.730545 2.163034 -2.972911 0.056006 0.066377 -0.070402 0.099707 0.118285 -0.125362 2.054545 2.547674 -2.609389 -10.432620 9.638462 3.166506 -21.646418 -16.495812 10.818428 0.210727 -1.740029 1.537313 5.958124 -0.808981 -2.636212 13.330502 -5.983107 0.301220 1.039367 -0.666922 1.699743 1.614399 -3.202573 6.847692 -6.688419 4.828163 5.263060 -7.934825 2.840981 -3.085374 2.595196 -0.726318 3.120027 -9.512436 4.000909 -4.630295 -15.504282 10.490269 -1.619772 1.040417 -4.698450 6.689292 0.002246 -3.264781 0.408424 -5.260535 9.049164 -0.747171 16.798141 -6.222990 -3.432633 -16.146876 0.400704 2.454611 0.412939 0.321422 0.207582
20.516062 93.516945 5.546577 134.600771 -1.940548 -1.479673 1.804593 2.146923 -2.968590 0.058334 0.066500 -0.070905 0.103836 0.118488 -0.126236 2.126784 2.535812 -2.607727 -10.628056 9.610646 3.183141 -22.035079 -16.503935 10.939197 0.257043 -1.817143 1.581132 5.854920 -1.113276 -2.417751 13.060049 -6.213558 0.417630 1.026129 -0.634236 1.715161 1.673332 -3.221843 6.921391 -6.577867 5.019522 5.195855 -8.067505 3.025566 -2.797579 2.555874 -0.651381 3.110396 -9.692632 4.085851 -4.629371 -15.437794 10.231545 -1.593693 1.125777 -4.587303 6.675064 0.009177 -2.619926 0.339813 -5.250380 9.027595 -0.759518 16.796303 -6.231278 -3.424442 -16.083437 0.446644 2.481841 0.406244 0.292078 0.203971
20.477294 93.524267 5.526890 134.531701 -1.920350 -1.503139 1.870635 2.121473 -2.966966 0.060440 0.066293 -0.071284 0.107574 0.118106 -0.126893 2.193699 2.515819 -2.606122 -10.816162 9.592581 3.197238 -22.406372 -16.495660 11.049545 0.291604 -1.897613 1.622148 5.782353 -1.427819 -2.198779 12.866083 -6.435878 0.524537 1.021442 -0.607899 1.722354 1.737951 -3.245683 7.001651 -6.444527 5.222080 5.105692 -8.185713 3.206154 -2.500575 2.511153 -0.571728 3.109144 -9.856600 4.167642 -4.625130 -15.379303 9.966159 -1.562618 1.203078 -4.480957 6.663474 0.014422 -2.099876 0.279000 -5.236511 9.012456 -0.773928 16.819336 -6.266570 -3.424489 -16.018318 0.504800 2.511267 0.393587 0.264004 0.197236
20.440642 93.529762 5.512210 134.452505 -1.887537 -1.521430 1.929078 2.084407 -2.971519 0.062331 0.065668 -0.071479 0.110933 0.116986 -0.127230 2.256775 2.485375 -2.603355 -10.995659 9.583998 3.208893 -22.757865 -16.471833 11.149105 0.316946 -1.976675 1.657485 5.744580 -1.755274 -1.979337 12.740002 -6.653275 0.627268 1.024652 -0.594786 1.727571 1.808226 -3.272000 7.089151 -6.291280 5.436534 4.991838 -8.288099 3.379710 -2.201973 2.468621 -0.492503 3.115504 -9.996044 4.237497 -4.620460 -15.336070 9.700339 -1.527065 1.274356 -4.385098 6.654481 0.017865 -1.676203 0.224199 -5.219216 8.991806 -0.791778 16.861167 -6.316813 -3.430246 -15.955505 0.567603 2.544937 0.370604 0.239080 0.185324
20.404509 93.533019 5.503205 134.368386 -1.837538 -1.531954 1.974364 2.031501 -2.983196 0.063961 0.064649 -0.071479 0.113832 0.115170 -0.127225 2.314864 2.445366 -2.599139 -11.164598 9.583898 3.217865 -23.085887 -16.434856 11.236795 0.338157 -2.049846 1.685215 5.743358 -2.096193 -1.759599 12.667480 -6.871138 0.728292 1.039540 -0.596631 1.734264 1.883995 -3.298526 7.181427 -6.123049 5.660197 4.859619 -8.374368 3.545277 -1.910846 2.436478 -0.417199 3.126533 -10.108099 4.288258 -4.616384 -15.310040 9.439108 -1.487876 1.332554 -4.304336 6.649361 0.019452 -1.326473 0.173873 -5.210533 8.952428 -0.814922 16.915487 -6.368792 -3.439014 -15.886355 0.627138 2.582598 0.337823 0.218799 0.169533
20.367433 93.533686 5.500417 134.288037 -1.767457 -1.532999 1.999028 1.958524 -3.002512 0.065237 0.063302 -0.071319 0.116107 0.112774 -0.126941 2.364724 2.397849 -2.594686 -11.320968 9.590665 3.226291 -23.387840 -16.387710 11.316244 0.358393 -2.112305 1.707538 5.779400 -2.450172 -1.542812 12.638843 -7.097067 0.831386 1.060792 -0.610262 1.741533 1.965460 -3.322205 7.273240 -5.942547 5.886801 4.719859 -8.441533 3.701868 -1.636154 2.417406 -0.342674 3.137640 -10.196999 4.314575 -4.614194 -15.300119 9.187753 -1.446699 1.375694 -4.242644 6.650040 0.019811 -1.033857 0.126663 -5.224572 8.883834 -0.844909 16.970298 -6.412423 -3.445922 -15.800602 0.677442 2.620691 0.299584 0.204313 0.152442
20.329738 93.531581 5.503508 134.213752 -1.685200 -1.526205 2.004140 1.871650 -3.026773 0.066132 0.061768 -0.071075 0.117709 0.110048 -0.126515 2.404340 2.346676 -2.591528 -11.465538 9.602035 3.237509 -23.667145 -16.333674 11.394718 0.380116 -2.162118 1.724381 5.844349 -2.820198 -1.331206 12.651229 -7.333232 0.945712 1.073442 -0.632672 1.742565 2.050380 -3.341976 7.361602 -5.754760 6.112616 4.579893 -8.483342 3.845783 -1.384839 2.404082 -0.266527 3.146471 -10.263143 4.322483 -4.613347 -15.303066 8.951204 -1.405805 1.403775 -4.201982 6.656228 0.019970 -0.787133 0.083325 -5.264892 8.790383 -0.880649 17.013659 -6.441076 -3.445477 -15.692083 0.710956 2.654649 0.263069 0.198236 0.136401
20.292174 93.526646 5.510372 134.145623 -1.606716 -1.507630 1.995955 1.783691 -3.059086 0.066675 0.060216 -0.070798 0.118685 0.107291 -0.126030 2.433275 2.296574 -2.589839 -11.602205 9.616212 3.253699 -23.932621 -16.274714 11.478452 0.403637 -2.198594 1.734859 5.930025 -3.206057 -1.127584 12.697949 -7.576387 1.077981 1.072893 -0.668066 1.737371 2.132540 -3.359066 7.442847 -5.569685 6.339466 4.445954 -8.493196 3.971316 -1.162748 2.392638 -0.188522 3.152237 -10.308429 4.324880 -4.619383 -15.312861 8.734412 -1.370581 1.414326 -4.186403 6.667198 0.020522 -0.575741 0.046740 -5.326551 8.687303 -0.927319 17.043349 -6.450807 -3.437822 -15.564414 0.725766 2.689730 0.221007 0.199328 0.117701
20.256152 93.518964 5.520307 134.082134 -1.544025 -1.481294 1.982581 1.705475 -3.095184 0.066914 0.058765 -0.070561 0.119122 0.104716 -0.125619 2.451853 2.250633 -2.590777 -11.733001 9.631243 3.276043 -24.189122 -16.213682 11.571045 0.426586 -2.222960 1.743895 6.037171 -3.602074 -0.936619 12.767407 -7.830070 1.232612 1.068246 -0.717160 1.728832 2.206789 -3.376312 7.513217 -5.394994 6.568254 4.324765 -8.470567 4.079209 -0.973587 2.383102 -0.113471 3.153461 -10.336299 4.332417 -4.629910 -15.321788 8.540645 -1.344455 1.410354 -4.195183 6.680257 0.021992 -0.394843 0.019076 -5.397772 8.590262 -0.980216 17.069643 -6.442974 -3.428376 -15.426899 0.720163 2.724332 0.178902 0.209123 0.099851
